# xmcd
#
# Track frame offsets:
#	150
#	11914
#	29991
#	42267
#	57465
#	71560
#	83202
#	106520
#	117540
#	130290
#	143040
#	157481
#	172807
#	185430
#
# Disc length: 2620 seconds
#
# Revision: 1
# Processed by: cddbd v1.5.1PL0 Copyright (c) Steve Scherf et al.
# Submitted via: CDex 1.50Beta5
#
DISCID=cc0a3a0e
DTITLE=ポールモーリア - オリーブの首飾り
DYEAR=1900
DGENRE=NEW MUSIC
TTITLE0=恋は水色
TTITLE1=エーゲ海の真珠
TTITLE2=涙のトッカータ
TTITLE3=フィーリング
TTITLE4=シバの女王
TTITLE5=オリーブの首飾り
TTITLE6=恋のアランフェス
TTITLE7=ばら色のメヌエット
TTITLE8=天使のセレナーデ
TTITLE9=蒼いノクターン
TTITLE10=そよ風の誘惑
TTITLE11=マドンナの宝石
TTITLE12=シェルブールの雨傘
TTITLE13=追憶のテーマ
EXTD=
EXTT0=
EXTT1=
EXTT2=
EXTT3=
EXTT4=
EXTT5=
EXTT6=
EXTT7=
EXTT8=
EXTT9=
EXTT10=
EXTT11=
EXTT12=
EXTT13=
PLAYORDER=
